<?xml version="1.0" encoding="UTF-8" standalone="no"?>
<!-- Created with Inkscape (http://www.inkscape.org/) -->

<svg
   xmlns:dc="http://purl.org/dc/elements/1.1/"
   xmlns:cc="http://creativecommons.org/ns#"
   xmlns:rdf="http://www.w3.org/1999/02/22-rdf-syntax-ns#"
   xmlns:svg="http://www.w3.org/2000/svg"
   xmlns="http://www.w3.org/2000/svg"
   xmlns:xlink="http://www.w3.org/1999/xlink"
   xmlns:sodipodi="http://sodipodi.sourceforge.net/DTD/sodipodi-0.dtd"
   xmlns:inkscape="http://www.inkscape.org/namespaces/inkscape"
   width="20"
   height="20"
   id="svg3783"
   version="1.1"
   inkscape:version="0.48.0 r9654"
   sodipodi:docname="reload2.svg"
   inkscape:export-filename="C:\code\gsym\trunk\icons\reload2.png"
   inkscape:export-xdpi="90"
   inkscape:export-ydpi="90">
  <defs
     id="defs3785">
    <linearGradient
       id="linearGradient4414">
      <stop
         style="stop-color:#202020;stop-opacity:1;"
         offset="0"
         id="stop4416" />
      <stop
         style="stop-color:#e0e0e0;stop-opacity:1;"
         offset="1"
         id="stop4418" />
    </linearGradient>
    <linearGradient
       id="linearGradient4337">
      <stop
         style="stop-color:#202020;stop-opacity:1;"
         offset="0"
         id="stop4339" />
      <stop
         style="stop-color:#e0e0e0;stop-opacity:1;"
         offset="1"
         id="stop4341" />
    </linearGradient>
    <linearGradient
       inkscape:collect="always"
       xlink:href="#linearGradient4337"
       id="linearGradient4343"
       x1="9.8846149"
       y1="2.0510812"
       x2="9.8076925"
       y2="17.935696"
       gradientUnits="userSpaceOnUse" />
    <filter
       inkscape:collect="always"
       id="filter4388">
      <feGaussianBlur
         inkscape:collect="always"
         stdDeviation="0.97617188"
         id="feGaussianBlur4390" />
    </filter>
    <clipPath
       clipPathUnits="userSpaceOnUse"
       id="clipPath4395">
      <path
         sodipodi:nodetypes="csssccsssccccccc"
         inkscape:connector-curvature="0"
         id="path4397"
         d="M 4.78125,4.59375 C 3.3677697,5.9577497 2.5,7.8805804 2.5,10 c 0,4.142136 3.3578644,7.5 7.5,7.5 4.142136,0 7.5,-3.357864 7.5,-7.5 0,-2.0549505 -0.817594,-3.9266025 -2.15625,-5.28125 -1.064231,0.9708736 -1.085737,1.0211403 -2.125,2.125 C 14.01448,7.6554404 14.5,8.7735307 14.5,10 14.5,12.485281 12.485281,14.5 10,14.5 7.5147186,14.5 5.5,12.485281 5.5,10 5.5,8.7088452 6.0352191,7.5393728 6.90625,6.71875 L 6.932692,8.2644231 9.2536059,8.2295671 9.3052889,2.387019 3.2800484,2.371394 3.2548084,4.5865384 z"
         style="fill:#5a7987;fill-opacity:1;stroke:none;display:inline" />
    </clipPath>
    <linearGradient
       inkscape:collect="always"
       xlink:href="#linearGradient4414"
       id="linearGradient4420"
       x1="10.16617"
       y1="2.3744233"
       x2="10.153846"
       y2="17.451345"
       gradientUnits="userSpaceOnUse" />
    <filter
       inkscape:collect="always"
       id="filter4433">
      <feGaussianBlur
         inkscape:collect="always"
         stdDeviation="1.2691406"
         id="feGaussianBlur4435" />
    </filter>
    <clipPath
       clipPathUnits="userSpaceOnUse"
       id="clipPath4440">
      <path
         inkscape:connector-curvature="0"
         id="path4442"
         d="M 7.5625,2.40625 3.3125,2.75 a 0.95186474,0.95186474 0 0 0 -0.09375,0.03125 0.95186474,0.95186474 0 0 0 -0.78125,1 c 1.06e-5,1.266e-4 0.1560995,0.4372576 0.15625,0.4375 1.505e-4,2.424e-4 0.047591,0.075042 0.0625,0.09375 C 2.686063,4.349854 2.707527,4.363124 2.71875,4.375 2.741202,4.398816 2.739626,4.396279 2.75,4.40625 2.770749,4.426191 2.792269,4.450296 2.8125,4.46875 2.852957,4.505596 2.9038,4.536193 2.96875,4.59375 3.0986396,4.7087383 3.2825223,4.8727213 3.5,5.0625 3.6374572,5.1824685 3.8385977,5.3596148 4,5.5 3.0637212,6.7548773 2.5,8.3138818 2.5,10 c 0,4.142136 3.3578644,7.5 7.5,7.5 4.142136,0 7.5,-3.357864 7.5,-7.5 0,-2.0549505 -0.817594,-3.9266025 -2.15625,-5.28125 -1.064231,0.9708736 -1.085737,1.0211403 -2.125,2.125 C 14.01448,7.6554404 14.5,8.7735307 14.5,10 14.5,12.485281 12.485281,14.5 10,14.5 7.5147186,14.5 5.5,12.485281 5.5,10 5.5,9.0721299 5.7711918,8.2178787 6.25,7.5 6.6702414,7.8613146 7.40625,8.46875 7.40625,8.46875 a 0.95186474,0.95186474 0 0 0 1.5625,-0.8125 l -0.375,-4.375 A 0.95186474,0.95186474 0 0 0 7.5625,2.40625 z"
         style="fill:#5a7987;fill-opacity:1;stroke:none;display:inline" />
    </clipPath>
  </defs>
  <sodipodi:namedview
     id="base"
     pagecolor="#ffffff"
     bordercolor="#666666"
     borderopacity="1.0"
     inkscape:pageopacity="0.0"
     inkscape:pageshadow="2"
     inkscape:zoom="26"
     inkscape:cx="4.7766064"
     inkscape:cy="7.6299475"
     inkscape:document-units="px"
     inkscape:current-layer="layer6"
     showgrid="false"
     inkscape:window-width="1920"
     inkscape:window-height="1150"
     inkscape:window-x="-8"
     inkscape:window-y="-8"
     inkscape:window-maximized="1" />
  <metadata
     id="metadata3788">
    <rdf:RDF>
      <cc:Work
         rdf:about="">
        <dc:format>image/svg+xml</dc:format>
        <dc:type
           rdf:resource="http://purl.org/dc/dcmitype/StillImage" />
        <dc:title></dc:title>
      </cc:Work>
    </rdf:RDF>
  </metadata>
  <g
     inkscape:groupmode="layer"
     id="layer5"
     inkscape:label="Outline"
     style="display:inline">
    <path
       id="path4411"
       d="M 7.5625,2.40625 3.3125,2.75 a 0.95186474,0.95186474 0 0 0 -0.09375,0.03125 0.95186474,0.95186474 0 0 0 -0.78125,1 c 1.06e-5,1.266e-4 0.1560995,0.4372576 0.15625,0.4375 1.505e-4,2.424e-4 0.047591,0.075042 0.0625,0.09375 C 2.686063,4.349854 2.707527,4.363124 2.71875,4.375 2.741202,4.398816 2.739626,4.396279 2.75,4.40625 2.770749,4.426191 2.792269,4.450296 2.8125,4.46875 2.852957,4.505596 2.9038,4.536193 2.96875,4.59375 3.0986396,4.7087383 3.2825223,4.8727213 3.5,5.0625 3.6374572,5.1824685 3.8385977,5.3596148 4,5.5 3.0637212,6.7548773 2.5,8.3138818 2.5,10 c 0,4.142136 3.3578644,7.5 7.5,7.5 4.142136,0 7.5,-3.357864 7.5,-7.5 0,-2.0549505 -0.817594,-3.9266025 -2.15625,-5.28125 -1.064231,0.9708736 -1.085737,1.0211403 -2.125,2.125 C 14.01448,7.6554404 14.5,8.7735307 14.5,10 14.5,12.485281 12.485281,14.5 10,14.5 7.5147186,14.5 5.5,12.485281 5.5,10 5.5,9.0721299 5.7711918,8.2178787 6.25,7.5 6.6702414,7.8613146 7.40625,8.46875 7.40625,8.46875 a 0.95186474,0.95186474 0 0 0 1.5625,-0.8125 l -0.375,-4.375 A 0.95186474,0.95186474 0 0 0 7.5625,2.40625 z"
       style="fill:none;stroke:url(#linearGradient4420);stroke-width:1.5;stroke-miterlimit:4;stroke-dasharray:none;display:inline"
       inkscape:connector-curvature="0" />
  </g>
  <g
     inkscape:label="Back"
     inkscape:groupmode="layer"
     id="layer1"
     transform="translate(0,-1032.3622)"
     style="display:inline">
    <path
       style="fill:#5a7987;fill-opacity:1;stroke:none"
       d="M 7.5625,2.40625 3.3125,2.75 a 0.95186474,0.95186474 0 0 0 -0.09375,0.03125 0.95186474,0.95186474 0 0 0 -0.78125,1 c 1.06e-5,1.266e-4 0.1560995,0.4372576 0.15625,0.4375 1.505e-4,2.424e-4 0.047591,0.075042 0.0625,0.09375 C 2.686063,4.349854 2.707527,4.363124 2.71875,4.375 2.741202,4.398816 2.739626,4.396279 2.75,4.40625 2.770749,4.426191 2.792269,4.450296 2.8125,4.46875 2.852957,4.505596 2.9038,4.536193 2.96875,4.59375 3.0986396,4.7087383 3.2825223,4.8727213 3.5,5.0625 3.6374572,5.1824685 3.8385977,5.3596148 4,5.5 3.0637212,6.7548773 2.5,8.3138818 2.5,10 c 0,4.142136 3.3578644,7.5 7.5,7.5 4.142136,0 7.5,-3.357864 7.5,-7.5 0,-2.0549505 -0.817594,-3.9266025 -2.15625,-5.28125 -1.064231,0.9708736 -1.085737,1.0211403 -2.125,2.125 C 14.01448,7.6554404 14.5,8.7735307 14.5,10 14.5,12.485281 12.485281,14.5 10,14.5 7.5147186,14.5 5.5,12.485281 5.5,10 5.5,9.0721299 5.7711918,8.2178787 6.25,7.5 6.6702414,7.8613146 7.40625,8.46875 7.40625,8.46875 a 0.95186474,0.95186474 0 0 0 1.5625,-0.8125 l -0.375,-4.375 A 0.95186474,0.95186474 0 0 0 7.5625,2.40625 z"
       transform="translate(0,1032.3622)"
       id="path4305"
       inkscape:connector-curvature="0" />
  </g>
  <g
     inkscape:groupmode="layer"
     id="layer6"
     inkscape:label="Shadow"
     style="display:inline">
    <path
       style="fill:#000000;fill-opacity:0.5254902;stroke:none;display:inline;filter:url(#filter4433)"
       d="m -8.46875,-2.875 0,32.4375 35.25,0 0,-32.4375 -35.25,0 z M 7.5625,4.40625 a 0.95186474,0.95186474 0 0 1 1.03125,0.875 l 0.375,4.375 a 0.95186474,0.95186474 0 0 1 -1.5625,0.8125 c 0,0 -0.7360086,-0.6074354 -1.15625,-0.96875 -0.4788082,0.717879 -0.75,1.57213 -0.75,2.5 0,2.485281 2.0147186,4.5 4.5,4.5 2.485281,0 4.5,-2.014719 4.5,-4.5 0,-1.226469 -0.48552,-2.3445596 -1.28125,-3.15625 1.039263,-1.1038597 1.060769,-1.1541264 2.125,-2.125 C 16.682406,8.0733975 17.5,9.9450495 17.5,12 17.5,16.142136 14.142136,19.5 10,19.5 5.8578644,19.5 2.5,16.142136 2.5,12 2.5,10.313882 3.0637212,8.7548773 4,7.5 3.8385977,7.3596148 3.6374572,7.1824685 3.5,7.0625 3.2825223,6.8727213 3.0986396,6.7087383 2.96875,6.59375 2.9038,6.536193 2.852957,6.505596 2.8125,6.46875 2.792269,6.450296 2.770749,6.426191 2.75,6.40625 2.739626,6.396279 2.741202,6.398816 2.71875,6.375 2.707527,6.363124 2.686063,6.349854 2.65625,6.3125 2.641341,6.293792 2.5939005,6.2189924 2.59375,6.21875 2.5935995,6.2185076 2.4375106,5.7813766 2.4375,5.78125 a 0.95186474,0.95186474 0 0 1 0.78125,-1 A 0.95186474,0.95186474 0 0 1 3.3125,4.75 l 4.25,-0.34375 z"
       id="path4423"
       inkscape:connector-curvature="0"
       clip-path="url(#clipPath4440)" />
  </g>
</svg>
